<svg xmlns="http://www.w3.org/2000/svg" width="107.068" height="149.5" viewBox="0 0 107.068 149.5">
  <g id="Grupo_1626" data-name="Grupo 1626" transform="translate(-125.035 -752.107)">
    <path id="Trazado_2049" data-name="Trazado 2049" d="M125.651,829.9H126.8a.375.375,0,0,1,.375.375v9.082a.373.373,0,0,1-.375.375h-1.145a.375.375,0,0,1-.377-.375v-9.082a.376.376,0,0,1,.377-.375m0-4.045H126.8a.375.375,0,0,1,.375.375v1.318a.373.373,0,0,1-.375.375h-1.145a.375.375,0,0,1-.377-.375V826.23a.376.376,0,0,1,.377-.375" transform="translate(0.18 55.552)" fill="#fff"/>
    <path id="Trazado_2050" data-name="Trazado 2050" d="M137,832.133c0-1.955-1.054-2.607-3.105-2.607a7.482,7.482,0,0,0-3.575.926.37.37,0,0,0-.182.324v6.943a.376.376,0,0,1-.375.375h-1.147a.377.377,0,0,1-.377-.375v-9.082a.377.377,0,0,1,.377-.375h.894a.378.378,0,0,1,.372.317l.014.095a.374.374,0,0,0,.547.274,8.081,8.081,0,0,1,3.854-.917,5.007,5.007,0,0,1,3.733,1.255.366.366,0,0,0,.486.046,8.149,8.149,0,0,1,4.523-1.3c2.472,0,4.6.864,4.6,3.776v5.912a.376.376,0,0,1-.375.375h-1.147a.376.376,0,0,1-.377-.375v-5.586c0-1.955-1.054-2.607-3.1-2.607a7.4,7.4,0,0,0-3.645.966.374.374,0,0,0-.181.384,5.389,5.389,0,0,1,.086.931v5.912a.376.376,0,0,1-.375.375h-1.147a.376.376,0,0,1-.375-.375Z" transform="translate(2.411 57.19)" fill="#fff"/>
    <path id="Trazado_2051" data-name="Trazado 2051" d="M150.592,833.169c0-2.435-1.457-3.68-4.12-3.68a6.306,6.306,0,0,0-3.212.847.375.375,0,0,0-.182.324v5a.38.38,0,0,0,.182.326,6.323,6.323,0,0,0,3.212.847c2.663,0,4.12-1.227,4.12-3.661m-9.036-4.907h.894a.375.375,0,0,1,.37.317.376.376,0,0,0,.551.272,7.72,7.72,0,0,1,3.484-.82c3.47,0,5.693,1.86,5.693,5.139,0,3.2-2.146,5.156-5.809,5.156a7.489,7.489,0,0,1-3.131-.626.374.374,0,0,0-.529.342v3.722a.376.376,0,0,1-.375.375h-1.147a.376.376,0,0,1-.375-.375V828.637a.376.376,0,0,1,.375-.375" transform="translate(12.162 57.19)" fill="#fff"/>
    <path id="Trazado_2052" data-name="Trazado 2052" d="M158.363,837.675a.375.375,0,0,0-.545-.263,7.9,7.9,0,0,1-3.577.813c-2.472,0-4.7-.672-4.7-3.682v-6.007a.376.376,0,0,1,.375-.375h1.147a.376.376,0,0,1,.375.375v5.682c0,1.858,1.15,2.511,3.2,2.511a6.142,6.142,0,0,0,3.277-.829.38.38,0,0,0,.193-.331v-7.032a.376.376,0,0,1,.375-.375h1.147a.376.376,0,0,1,.375.375v9.082a.375.375,0,0,1-.375.375h-.9a.374.374,0,0,1-.368-.307Z" transform="translate(18.463 57.29)" fill="#fff"/>
    <path id="Trazado_2053" data-name="Trazado 2053" d="M157.4,837.434v-11.2a.376.376,0,0,1,.377-.375h1.145a.376.376,0,0,1,.375.375V837.2c0,.786.21,1.189,1.208,1.189a8.663,8.663,0,0,0,1.392-.1.373.373,0,0,1,.43.372v.7a.376.376,0,0,1-.284.367,8.3,8.3,0,0,1-2,.231c-1.955,0-2.646-.882-2.646-2.53" transform="translate(24.375 55.552)" fill="#fff"/>
    <path id="Trazado_2054" data-name="Trazado 2054" d="M199.509,846.431H166.458a4.908,4.908,0,0,1-4.893-4.893V830.248a4.908,4.908,0,0,1,4.893-4.893h33.051a4.909,4.909,0,0,1,4.9,4.893v11.289a4.909,4.909,0,0,1-4.9,4.893" transform="translate(27.516 55.175)" fill="#6bab95"/>
    <path id="Trazado_2055" data-name="Trazado 2055" d="M163.454,837.364v-.694a.375.375,0,0,1,.477-.361,14.422,14.422,0,0,0,3.529.5c2.339,0,3.45-.5,3.45-1.4,0-.959-1.036-1.15-2.914-1.515-3.009-.556-4.408-1.15-4.408-3.01,0-1.745,1.457-2.854,4.906-2.854a9,9,0,0,1,3.5.626.373.373,0,0,1,.217.342v.693a.375.375,0,0,1-.491.358,10.328,10.328,0,0,0-3.23-.5c-2.127,0-2.97.442-2.97,1.324,0,.957,1.034,1.131,2.914,1.5,2.989.556,4.408,1.169,4.408,3.028,0,1.744-1.858,2.933-5.386,2.933a11.567,11.567,0,0,1-3.763-.608.377.377,0,0,1-.244-.352" transform="translate(28.939 57.191)" fill="#222f37"/>
    <path id="Trazado_2056" data-name="Trazado 2056" d="M169.632,841.844v-.807a.377.377,0,0,1,.421-.377,3.776,3.776,0,0,0,.538.037,4.038,4.038,0,0,0,3.871-2.453l.154-.286a.376.376,0,0,0,.005-.351l-4.557-8.9a.376.376,0,0,1,.335-.547h1.261a.374.374,0,0,1,.337.21l3.41,6.939a.376.376,0,0,0,.675,0l3.377-6.938a.371.371,0,0,1,.337-.21h1.22a.376.376,0,0,1,.335.547l-4.914,9.573c-1.245,2.435-2.8,3.987-5.828,3.987a4.223,4.223,0,0,1-.664-.053.377.377,0,0,1-.312-.372" transform="translate(33.593 57.29)" fill="#222f37"/>
    <path id="Trazado_2057" data-name="Trazado 2057" d="M178.242,828.261h.894a.378.378,0,0,1,.372.317l.014.095a.374.374,0,0,0,.547.274,8.076,8.076,0,0,1,3.854-.917c2.474,0,4.6.863,4.6,3.778v5.91a.375.375,0,0,1-.375.375H187a.375.375,0,0,1-.377-.375v-5.586c0-1.955-1.054-2.607-3.105-2.607a7.482,7.482,0,0,0-3.575.926.37.37,0,0,0-.182.324v6.943a.375.375,0,0,1-.375.375h-1.147a.375.375,0,0,1-.377-.375v-9.082a.376.376,0,0,1,.377-.375" transform="translate(39.795 57.19)" fill="#222f37"/>
    <path id="Trazado_2058" data-name="Trazado 2058" d="M125.035,776.539V752.106h24.432v.01l18.309,18.309h.01v24.432H143.354v-.01l-18.309-18.309Z" transform="translate(0 0)" fill="#6bab95"/>
    <path id="Trazado_2059" data-name="Trazado 2059" d="M204.362,776.539V752.106H179.93v.01l-18.309,18.309h-.01v24.432h24.432v-.01l18.309-18.309Z" transform="translate(27.551 0)" fill="#6bab95"/>
    <path id="Trazado_2060" data-name="Trazado 2060" d="M204.47,807v24.432H180.038v-.01l-18.309-18.309h-.01V788.682h24.432v.01L204.46,807Z" transform="translate(27.633 27.551)" fill="#6bab95"/>
    <path id="Trazado_2061" data-name="Trazado 2061" d="M125.144,807v24.432h24.432v-.01l18.309-18.309h.01V788.682H143.463v.01L125.154,807Z" transform="translate(0.081 27.551)" fill="#6bab95"/>
  </g>
</svg>
