<svg xmlns="http://www.w3.org/2000/svg" width="110.422" height="20.834" viewBox="0 0 110.422 20.834">
  <g id="Grupo_1257" data-name="Grupo 1257" transform="translate(-125 -14.207)">
    <g id="Grupo_2" data-name="Grupo 2" transform="translate(125 14.207)">
      <path id="Trazado_2" data-name="Trazado 2" d="M533.755,848.975h1.151a.378.378,0,0,1,.377.378v9.126a.378.378,0,0,1-.377.378h-1.151a.378.378,0,0,1-.378-.378v-9.126a.378.378,0,0,1,.378-.378m0-4.064h1.151a.378.378,0,0,1,.377.378v1.325a.377.377,0,0,1-.377.377h-1.151a.377.377,0,0,1-.378-.377v-1.325a.378.378,0,0,1,.378-.378" transform="translate(-533.377 -843.661)" fill="#fff"/>
      <path id="Trazado_3" data-name="Trazado 3" d="M555.336,856.989c0-1.965-1.06-2.62-3.12-2.62a7.51,7.51,0,0,0-3.593.93.373.373,0,0,0-.183.325V862.6a.378.378,0,0,1-.378.378h-1.152a.378.378,0,0,1-.378-.378v-9.126a.378.378,0,0,1,.378-.378h.9a.378.378,0,0,1,.373.319l.014.1a.375.375,0,0,0,.55.275,8.131,8.131,0,0,1,3.874-.92,5.028,5.028,0,0,1,3.75,1.261.37.37,0,0,0,.488.046,8.183,8.183,0,0,1,4.545-1.307c2.485,0,4.623.867,4.623,3.8V862.6a.378.378,0,0,1-.377.378H564.5a.378.378,0,0,1-.378-.378v-5.612c0-1.965-1.059-2.62-3.12-2.62a7.435,7.435,0,0,0-3.662.97.375.375,0,0,0-.181.387,5.39,5.39,0,0,1,.086.936V862.6a.378.378,0,0,1-.377.378h-1.152a.378.378,0,0,1-.378-.378Z" transform="translate(-540.195 -847.785)" fill="#fff"/>
      <path id="Trazado_4" data-name="Trazado 4" d="M605.216,858.029c0-2.446-1.464-3.7-4.141-3.7a6.349,6.349,0,0,0-3.227.851.377.377,0,0,0-.183.326v5.022a.378.378,0,0,0,.183.327,6.349,6.349,0,0,0,3.227.851c2.677,0,4.141-1.233,4.141-3.679m-9.08-4.931h.9a.378.378,0,0,1,.373.32.377.377,0,0,0,.552.273,7.768,7.768,0,0,1,3.5-.824c3.486,0,5.721,1.868,5.721,5.162,0,3.217-2.157,5.182-5.836,5.182a7.536,7.536,0,0,1-3.148-.628.375.375,0,0,0-.531.344v3.739a.378.378,0,0,1-.378.378h-1.152a.377.377,0,0,1-.378-.378V853.476a.377.377,0,0,1,.378-.378" transform="translate(-565.707 -847.785)" fill="#fff"/>
      <path id="Trazado_5" data-name="Trazado 5" d="M635.21,862.907a.377.377,0,0,0-.548-.265,7.924,7.924,0,0,1-3.593.817c-2.484,0-4.719-.674-4.719-3.7v-6.036a.377.377,0,0,1,.377-.378h1.152a.377.377,0,0,1,.378.378v5.709c0,1.868,1.156,2.523,3.217,2.523a6.166,6.166,0,0,0,3.293-.833.381.381,0,0,0,.194-.332v-7.067a.378.378,0,0,1,.378-.378h1.151a.378.378,0,0,1,.378.378v9.125a.378.378,0,0,1-.378.378h-.906a.377.377,0,0,1-.371-.31Z" transform="translate(-581.562 -848.033)" fill="#fff"/>
      <path id="Trazado_6" data-name="Trazado 6" d="M657.181,856.545V845.289a.378.378,0,0,1,.378-.378h1.151a.378.378,0,0,1,.377.378v11.025c0,.79.211,1.194,1.213,1.194a8.727,8.727,0,0,0,1.4-.1.375.375,0,0,1,.432.373v.709a.377.377,0,0,1-.286.368,8.344,8.344,0,0,1-2.006.232c-1.965,0-2.658-.886-2.658-2.543" transform="translate(-597.54 -843.661)" fill="#fff"/>
      <path id="Trazado_7" data-name="Trazado 7" d="M712.2,863.151H679.527a4.851,4.851,0,0,1-4.837-4.837v-11.16a4.851,4.851,0,0,1,4.837-4.837H712.2a4.852,4.852,0,0,1,4.837,4.837v11.16a4.851,4.851,0,0,1-4.837,4.837" transform="translate(-606.614 -842.317)" fill="#78b8a6"/>
      <g id="Grupo_1" data-name="Grupo 1" transform="translate(70.979 5.082)">
        <path id="Trazado_8" data-name="Trazado 8" d="M680.716,862.245v-.7a.377.377,0,0,1,.479-.363,14.53,14.53,0,0,0,3.547.5c2.349,0,3.467-.5,3.467-1.406,0-.964-1.041-1.156-2.928-1.522-3.024-.558-4.431-1.155-4.431-3.024,0-1.753,1.465-2.87,4.931-2.87a9.018,9.018,0,0,1,3.519.631.372.372,0,0,1,.218.342v.7a.376.376,0,0,1-.492.359,10.4,10.4,0,0,0-3.245-.507c-2.138,0-2.986.443-2.986,1.329,0,.964,1.041,1.136,2.928,1.5,3,.558,4.43,1.175,4.43,3.043,0,1.753-1.868,2.947-5.412,2.947a11.641,11.641,0,0,1-3.781-.611.379.379,0,0,1-.245-.355" transform="translate(-680.716 -852.867)" fill="#2e3d47"/>
        <path id="Trazado_9" data-name="Trazado 9" d="M703.975,867.1v-.81a.378.378,0,0,1,.423-.379,3.88,3.88,0,0,0,.54.036,4.056,4.056,0,0,0,3.891-2.465l.155-.287a.38.38,0,0,0,0-.353l-4.577-8.942a.377.377,0,0,1,.336-.55h1.266a.377.377,0,0,1,.339.211l3.427,6.973a.377.377,0,0,0,.678,0l3.392-6.971a.376.376,0,0,1,.339-.212h1.225a.378.378,0,0,1,.337.55l-4.938,9.62c-1.252,2.446-2.811,4.006-5.856,4.006a4.176,4.176,0,0,1-.669-.053.379.379,0,0,1-.313-.374" transform="translate(-692.77 -853.116)" fill="#2e3d47"/>
        <path id="Trazado_10" data-name="Trazado 10" d="M734.7,853.1h.9a.378.378,0,0,1,.373.319l.014.095a.376.376,0,0,0,.55.275,8.124,8.124,0,0,1,3.874-.92c2.485,0,4.623.867,4.623,3.8v5.94a.378.378,0,0,1-.377.378h-1.152a.378.378,0,0,1-.378-.378v-5.613c0-1.965-1.06-2.62-3.121-2.62a7.5,7.5,0,0,0-3.592.931.37.37,0,0,0-.183.325V862.6a.378.378,0,0,1-.378.378H734.7a.378.378,0,0,1-.378-.378v-9.126a.378.378,0,0,1,.378-.378" transform="translate(-708.5 -852.867)" fill="#2e3d47"/>
      </g>
    </g>
  </g>
</svg>
