<svg xmlns="http://www.w3.org/2000/svg" width="32.919" height="32.86" viewBox="0 0 32.919 32.86">
  <g id="Grupo_1621" data-name="Grupo 1621" transform="translate(0 0.001)">
    <path id="Trazado_72" data-name="Trazado 72" d="M1261.111,654.015V646.5h7.512v0l5.629,5.629h0v7.512h-7.512v0l-5.629-5.629Z" transform="translate(-1261.111 -646.504)" fill="#78b8a6"/>
    <path id="Trazado_73" data-name="Trazado 73" d="M1293.971,654.015V646.5h-7.512v0l-5.629,5.629h0v7.512h7.512v0l5.629-5.629Z" transform="translate(-1261.111 -646.504)" fill="#78b8a6"/>
    <path id="Trazado_74" data-name="Trazado 74" d="M1294.029,671.852v7.512h-7.512v0l-5.629-5.629h0v-7.512h7.512v0l5.629,5.629Z" transform="translate(-1261.111 -646.504)" fill="#78b8a6"/>
    <path id="Trazado_75" data-name="Trazado 75" d="M1261.169,671.852v7.512h7.512v0l5.629-5.629h0v-7.512H1266.8v0l-5.629,5.629Z" transform="translate(-1261.111 -646.504)" fill="#78b8a6"/>
  </g>
</svg>
